<svg width="273" height="102" viewBox="0 0 273 102" fill="none" xmlns="http://www.w3.org/2000/svg">
<g clip-path="url(#clip0_129_861)">
<path d="M6.13343 35.6438C9.63824 35.0642 12.401 37.1509 13.9388 40.0937C14.6988 41.5384 14.5557 43.7143 16.2902 44.508C19.9113 46.1756 25.9911 42.2251 29.1293 48.3337C33.0454 55.9493 22.3343 63.3242 16.925 55.8245C15.7806 54.2371 14.3411 47.3616 10.9168 49.7872C8.2077 51.7045 14.8418 57.4296 14.5825 61.2018C13.9746 70.1462 0 69.5755 0 60.7559C0 56.8232 4.09491 54.6384 4.22008 51.9096C4.3542 48.7795 1.98487 48.4228 0.94773 46.3093C-1.2249 41.8951 1.27854 36.4554 6.14237 35.6528L6.13343 35.6438Z" fill="#12433D"/>
<path d="M65.6885 36.063C66.6809 29.6958 60.7084 29.8919 62.1568 22.9184C63.7036 15.49 75.5502 16.5601 76.1224 24.3719C76.5069 29.5977 72.0722 30.3913 71.9649 33.7711C71.8755 36.5267 74.9512 38.0873 75.7112 40.3523C78.4649 48.619 67.2084 54.0498 62.6575 46.0953C61.683 44.392 61.531 41.7613 59.555 40.8517C56.1843 39.2911 51.9374 43.4378 47.9766 38.3905C42.2098 31.0423 52.9925 22.3833 58.9292 29.0269C61.2359 31.6131 60.4223 36.9547 65.6974 36.054L65.6885 36.063Z" fill="#12433D"/>
<path d="M20.716 9.1406C26.6795 7.90105 31.0426 12.5115 29.478 18.3971C28.87 20.6711 25.6692 22.526 25.6155 24.8713C25.553 27.3772 28.8343 29.1696 29.4869 31.3634C32.5805 41.7435 17.5688 44.5347 15.7717 35.6884C14.5468 29.6779 20.3226 27.8409 19.7325 24.4968C19.4732 23.0432 18.6685 22.2941 17.1933 22.7578C13.6437 23.8725 14.8776 30.9621 9.10179 31.8717C-2.51238 33.6998 -2.35144 18.0672 7.04539 17.8175C9.30743 17.755 11.5605 19.2175 13.7689 17.8175C16.1829 16.2836 15.4409 10.2464 20.716 9.14952V9.1406Z" fill="#12433D"/>
<path d="M58.7325 46.6304C60.3865 48.2623 60.7352 50.7414 60.4849 52.9619C60.0289 56.957 55.0041 58.5354 57.3198 62.8605C63.3191 63.0923 60.914 54.4957 67.5034 53.711C78.8315 52.3733 78.456 67.6403 69.077 67.8009C65.8315 67.8544 63.7125 65.6963 61.2895 69.3436C60.4759 70.5653 60.315 72.0813 59.5461 73.3298C55.1651 80.4728 43.9085 75.3719 46.9037 66.9537C47.7352 64.6083 50.6142 63.1191 50.6052 60.7381C50.6052 58.1698 47.2882 56.1009 46.6534 53.7377C44.6774 46.3718 53.5646 41.5027 58.7414 46.6214L58.7325 46.6304Z" fill="#12433D"/>
<path d="M35.826 53.8447C44.5702 51.8383 48.9333 62.2719 41.8879 66.6415C37.2208 69.5309 32.8755 64.7153 30.381 69.6022C32.5537 73.3298 34.7978 71.4392 37.8109 71.3679C48.0929 71.145 47.8425 87.2948 36.2731 85.4132C31.1768 84.5838 31.6596 77.744 28.5482 76.4866C26.161 75.5235 24.185 76.879 21.6369 76.6293C15.5839 76.0318 13.456 67.9435 17.989 64.1268C22.0035 60.7559 26.0358 64.1446 28.8879 62.5127C31.4092 61.0591 31.4897 54.8435 35.835 53.8447H35.826Z" fill="#12433D"/>
<path d="M33.0275 30.1595C29.2366 26.3427 30.9711 19.0927 36.3535 17.978C38.4636 17.541 45.9023 19.7348 45.9023 16.0339C45.9023 12.6274 40.0371 14.2593 38.3294 14.2593C27.2249 14.2861 29.5495 -2.88039 40.6988 0.410223C45.4017 1.80138 44.588 7.43733 47.2524 8.94441C50.2834 10.6655 53.7792 7.3214 57.8473 10.3356C62.7201 13.9472 60.9766 22.5171 54.4856 23.0432C51.8659 23.2572 49.5413 21.8036 47.2524 23.0967C45.1603 24.2828 45.2497 27.7963 43.5151 29.7671C41.0385 32.5672 35.6382 32.7634 33.0365 30.1416L33.0275 30.1595Z" fill="#12433D"/>
<path d="M88.2462 41.0747V5.59137H99.6369C102.185 5.59137 104.063 5.73405 105.314 6.01942C109.356 6.92902 112.717 10.0502 112.717 14.839C112.717 17.862 111.278 20.5463 108.587 22.0355C112.485 23.3821 114.452 26.209 114.452 30.2843C114.452 33.6909 113.012 36.8031 110.321 38.6758C107.532 40.6377 105.708 41.0747 100.084 41.0747H88.2552H88.2462ZM100.549 19.057C102.811 19.057 104.009 18.0939 104.009 16.2301C104.009 14.3663 102.856 13.5459 100.594 13.5459H96.9367V19.057H100.54H100.549ZM101.613 33.1112C104.161 33.1112 105.743 32.0054 105.743 29.7047C105.743 27.6447 104.349 26.637 101.657 26.637H96.9457V33.1112H101.613Z" fill="#0E4A40"/>
<path d="M116.607 11.6286V5.58246H124.591V11.6286H116.607ZM116.607 41.0747V14.4644H124.591V41.0747H116.607Z" fill="#0E4A40"/>
<path d="M141.078 41.8862C132.95 41.8862 126.701 35.8935 126.701 27.7428C126.701 19.5921 133.094 13.5994 141.078 13.5994C149.062 13.5994 155.455 19.5921 155.455 27.6536C155.455 35.7152 149.107 41.8951 141.078 41.8951V41.8862ZM147.47 27.7428C147.47 24.1936 144.779 21.0278 141.024 21.0278C137.51 21.0278 134.676 24.0955 134.676 27.7428C134.676 31.3901 137.466 34.4578 141.069 34.4578C144.672 34.4578 147.461 31.292 147.461 27.7428H147.47Z" fill="#0E4A40"/>
<path d="M102.185 57.8577C101.801 55.3162 100.746 54.4066 98.9663 54.4066C97.2854 54.4066 95.837 55.6015 95.837 57.1889C95.837 59.3024 97.7593 60.2565 101.657 61.9331C109.499 65.2861 111.466 68.1219 111.466 72.768C111.466 79.6257 106.754 83.6564 99.0647 83.6564C91.3755 83.6564 86.2256 79.6257 86.2256 72.0011V71.2342H95.2648C95.3095 74.1591 96.7579 76.0764 99.011 76.0764C100.889 76.0764 102.426 74.5872 102.426 72.6699C102.426 69.843 98.4835 68.5945 95.2648 67.3015C89.4443 64.9561 86.8067 61.8796 86.8067 57.2781C86.8067 51.2319 92.6719 46.8266 99.2077 46.8266C101.559 46.8266 103.633 47.3527 105.502 48.3158C109.302 50.2777 111.126 53.1135 111.18 57.8577H102.185Z" fill="#0E4A40"/>
<path d="M132.62 66.6326C131.466 64.1357 129.401 62.8961 126.656 62.8961C122.999 62.8961 120.505 65.9192 120.505 69.6557C120.505 73.3922 123.151 76.4153 126.853 76.4153C129.544 76.4153 131.422 75.1668 132.62 72.8661H140.747C139.164 79.5276 133.442 83.8437 126.611 83.8437C118.726 83.8437 112.476 77.4676 112.476 69.6022C112.476 61.7369 118.77 55.4588 126.468 55.4588C133.487 55.4588 139.209 59.8731 140.702 66.6326H132.629H132.62Z" fill="#0E4A40"/>
<path d="M162.759 82.9876V80.1072H162.661C161.508 82.4525 158.334 83.8972 154.82 83.8972C146.934 83.8972 141.453 77.7084 141.453 69.6557C141.453 61.6031 147.175 55.4588 154.82 55.4588C158.092 55.4588 161.114 56.7519 162.661 59.1953H162.759V56.3684H170.743V82.9787H162.759V82.9876ZM162.759 69.6557C162.759 65.9192 159.728 62.8961 155.982 62.8961C152.236 62.8961 149.446 65.9192 149.446 69.7538C149.446 73.5884 152.379 76.4688 156.08 76.4688C159.782 76.4688 162.759 73.4992 162.759 69.6646V69.6557Z" fill="#0E4A40"/>
<path d="M190.887 82.9876V68.22C190.887 64.6262 189.635 62.9407 186.703 62.9407C183.484 62.9407 182.134 64.7153 182.134 68.3092V82.9787H174.15V56.3684H181.598V59.1953H181.696C183.377 56.4576 185.737 55.4588 188.956 55.4588C193.766 55.4588 198.862 58.143 198.862 66.0084V82.9876H190.878H190.887Z" fill="#0E4A40"/>
<path d="M218.872 82.9876V68.22C218.872 64.6262 217.62 62.9407 214.688 62.9407C211.469 62.9407 210.119 64.7153 210.119 68.3092V82.9787H202.135V56.3684H209.583V59.1953H209.681C211.362 56.4576 213.722 55.4588 216.941 55.4588C221.751 55.4588 226.847 58.143 226.847 66.0084V82.9876H218.863H218.872Z" fill="#0E4A40"/>
<path d="M236.557 72.0992C236.986 75.1222 239.534 77.1376 242.807 77.1376C244.97 77.1376 246.365 76.3261 247.662 74.6407H255.834C253.285 80.4461 248.431 83.8437 242.807 83.8437C235.118 83.8437 228.671 77.6548 228.671 69.7449C228.671 61.8349 234.823 55.4588 242.664 55.4588C250.505 55.4588 256.746 61.7369 256.746 69.9857C256.746 70.7526 256.701 71.3768 256.558 72.0992H236.557ZM248.77 66.7307C248.144 63.993 245.739 62.1738 242.664 62.1738C239.776 62.1738 237.281 63.9038 236.655 66.7307H248.77Z" fill="#0E4A40"/>
<path d="M258.721 82.9876V56.3774H266.223V59.2043H266.321C267.716 56.3774 269.924 55.4678 273 55.4678V63.4758C268.243 63.5204 266.706 65.295 266.706 68.3181V82.9876H258.721Z" fill="#0E4A40"/>
<path d="M227.402 91.0491H232.015C234.653 91.0491 235.842 91.9587 235.842 93.8404C235.842 95.285 235.019 96.0876 233.624 96.3908V96.5513C235.529 96.7743 236.334 97.4788 236.334 99.0126C236.334 100.76 235.216 101.982 232.435 101.982H227.402V91.0313V91.0491ZM229.485 95.829H231.953C233.106 95.829 233.839 95.3742 233.839 94.206C233.839 93.1626 233.347 92.6722 232.042 92.6722H229.485V95.829ZM229.485 100.431H232.373C233.669 100.431 234.277 99.7884 234.277 98.861C234.277 97.8622 233.785 97.2915 232.265 97.2915H229.485V100.431Z" fill="#12433D"/>
<path d="M241.796 102H239.713V91.0491H247.635V92.8594H241.796V95.5615H247.08V97.345H241.796V100.19H247.617V102H241.796Z" fill="#12433D"/>
<path d="M250.228 92.9664V91.0491H259.079V92.9664H255.691V102H253.607V92.9664H250.219H250.228Z" fill="#12433D"/>
<path d="M262.995 99.2088L262.047 102H259.884L263.961 91.0491H266.777L270.854 102H268.619L267.653 99.2088H262.986H262.995ZM265.123 92.8594C264.774 93.992 264.408 95.1423 264.006 96.3105L263.532 97.6571H267.135L266.679 96.3105C266.276 95.1423 265.91 93.992 265.597 92.8594H265.123Z" fill="#12433D"/>
</g>
<defs>
<clipPath id="clip0_129_861">
<rect width="273" height="102" fill="white"/>
</clipPath>
</defs>
</svg>
